<svg xmlns="http://www.w3.org/2000/svg" width="473" height="473" viewBox="0 0 473 473" version="1.1">
	<path d="M 214.299 1.066 C 183.263 4.070, 150.420 13.918, 125.500 27.691 C 99.727 41.936, 79.425 57.777, 61.684 77.486 C 29.566 113.166, 10.150 153.714, 2.780 200.500 C -0.363 220.449, -0.363 252.551, 2.780 272.500 C 11.296 326.560, 37.474 375.191, 77.500 411.307 C 112.980 443.321, 152.359 462.237, 200 470.150 C 219.449 473.381, 253.551 473.381, 273 470.150 C 320.641 462.237, 360.020 443.321, 395.500 411.307 C 428.372 381.645, 451.489 344.329, 464.011 300.712 C 467.810 287.477, 472 264.008, 472 255.960 C 472 253.847, 472.450 251.840, 473 251.500 C 473.597 251.131, 474 244.637, 474 235.382 C 474 225.303, 473.650 220.098, 473 220.500 C 472.397 220.872, 472 219.540, 472 217.149 C 472 214.966, 471.139 207.402, 470.086 200.340 C 460.901 138.707, 426.144 81.883, 375 44.885 C 328.688 11.382, 270.799 -4.402, 214.299 1.066 M 0.405 236.500 C 0.406 245.300, 0.559 248.766, 0.745 244.203 C 0.930 239.639, 0.929 232.439, 0.742 228.203 C 0.555 223.966, 0.404 227.700, 0.405 236.500" stroke="none" fill="black" fill-rule="evenodd"/>
</svg>